<?xml version="1.0" encoding="UTF-8" standalone="no"?>
<svg id="svg2" xmlns:rdf="http://www.w3.org/1999/02/22-rdf-syntax-ns#" xmlns="http://www.w3.org/2000/svg" height="36.175mm" width="86.421mm" version="1.1" xmlns:cc="http://creativecommons.org/ns#" xmlns:dc="http://purl.org/dc/elements/1.1/" viewBox="0 0 306.21775 128.17801">
 <metadata id="metadata7">
  <rdf:RDF>
   <cc:Work rdf:about="">
    <dc:format>image/svg+xml</dc:format>
    <dc:type rdf:resource="http://purl.org/dc/dcmitype/StillImage"/>
    <dc:title/>
   </cc:Work>
  </rdf:RDF>
 </metadata>
 <g id="layer1" transform="translate(-265.59 -244.67)">
  <g id="g4140" opacity=".5" transform="translate(17.57 72.94)">
   <g id="text4136-2" transform="matrix(0 -1 1.247 0 -69.935 -.50508)">
    <path id="path4159" d="m-207.11 454.67c0-6.4677-2.2827-11.414-6.8481-14.838-4.5654-3.5002-12.783-7.1525-24.653-10.957-11.87-3.8806-26.571-7.9377-33.495-11.666-18.87-10.196-28.306-23.93-28.306-41.203 0-8.9787 2.511-16.968 7.533-23.969 5.0981-7.0764 12.365-12.593 21.8-16.55 9.5113-3.9567 25.467-5.6825 37.261-5.6825 11.87 0 22.447 2.1686 31.73 6.5057 9.283 4.2611 16.474 10.31 21.572 18.148 5.1742 7.8373 7.7612 16.74 7.7612 26.708h-34.241c0-7.609-2.3968-13.506-7.1906-17.691-4.7937-4.2611-16.326-6.8967-25-6.8967-8.37 0-14.876 1.7881-19.517 5.3644-4.6415 3.5002-6.9623 8.1417-6.9623 13.925 0 5.4024 2.7012 9.9298 8.1036 13.582 5.4785 3.6523 13.506 7.0764 24.083 10.272 19.479 5.859 38.468 13.631 47.371 22.305 8.9026 8.6743 13.354 19.479 13.354 32.415 0 6.0984 0.35327 44.053-1.3801 46.052-19.466-0.46403-39.794-0.023-58.884 0.0586-12.783 0-24.425-2.3208-34.926-6.9623-10.5-4.7176-18.528-11.147-24.083-19.289-5.4785-8.1417-8.2178-17.577-8.2178-28.306h34.355c0 18.338 10.957 27.507 32.871 27.507 8.1417 0 14.495-1.6359 19.061-4.9078 4.5654-3.348 6.8481-7.9895 6.8481-13.925z"/>
   </g>
   <path id="path4167" d="m405.28 172.36 80.93 92.991v34.375l-80.764-93.274z" fill-opacity=".17419" fill-rule="evenodd"/>
   <rect id="rect4177" opacity="1" height="58.661" width="26.228" y="172.27" x="527.93"/>
  </g>
  <g id="text4359" opacity=".5">
   <path id="path4147" d="m358.52 281.75q-5.2496-2.4573-10.499-3.5742-5.1379-1.2286-10.388-1.2286-15.414 0-23.791 9.9408-8.2654 9.8291-8.2654 28.259v57.634h-39.987v-125.1h39.987v20.552q7.7069-12.286 17.648-17.871 10.052-5.6964 24.014-5.6964 2.0105 0 4.3561 0.22339 2.3456 0.11169 6.8134 0.67016l0.11169 36.189z"/>
  </g>
 </g>
</svg>
